<svg width="293" height="91" viewBox="0 0 293 91" fill="none" xmlns="http://www.w3.org/2000/svg">
  <path d="M103.488 40.9949C101.687 40.8802 98.3877 40.2458 94.982 34.1303L78.8215 5.68975C76.3655 1.53091 72.6365 0.00818844 69.4068 0.00818844C65.8374 0.00818844 62.5259 1.85429 60.2787 5.68975L44.3392 31.1995C38.2974 40.3235 32.186 41.0235 29.6809 41.0235H28.9769C20.3808 41.0235 14.2817 35.1291 14.2817 27.5973C14.2876 24.1385 15.6392 20.8177 18.0504 18.3378C20.4615 15.8579 23.743 14.4135 27.2003 14.3103H27.6097C30.0131 14.302 32.3744 14.9411 34.4456 16.1605L41.7522 3.92143C37.7071 1.5093 33.1116 0.173361 28.4038 0.0409328H27.5851C20.2732 0.0474306 13.2625 2.95411 8.09105 8.12325C2.91961 13.2924 0.00981359 20.3018 6.00587e-05 27.6137C-0.00765867 31.2834 0.728706 34.9165 2.16466 38.2935C3.60061 41.6706 5.70633 44.7215 8.35458 47.2618C13.7994 52.4839 21.0685 55.373 28.6125 55.3134H30.1721C33.6539 55.1492 37.08 54.3761 40.2949 53.0293C46.787 50.34 51.8382 45.8414 56.259 39.0669L69.3904 17.4909L82.1617 40.7001C87.9497 51.4165 96.3697 55.3134 102.043 55.3134C104.356 55.3134 110.725 55.5549 116.648 50.8107C121.56 46.8975 123.816 41.396 123.816 32.5012V27.6301C123.82 24.093 125.227 20.7019 127.727 18.2005C130.228 15.699 133.619 14.2912 137.156 14.2858C144.524 14.2858 150.5 20.041 150.5 27.3845C150.5 34.5274 145.244 40.8925 137.68 40.8925H131.11V55.3216L147.758 84.6422C150.664 89.5174 154.802 90.3156 156.898 90.3238C161.163 90.3238 164.196 87.8678 166.141 84.6422L192.666 41.4983C197.131 49.0997 206.644 55.2888 216.157 55.2888C230.32 55.2888 241.905 44.2941 243.476 30.5445L274.586 52.7755C277.422 54.638 280.104 55.2888 282.24 55.2888C283.934 55.3181 285.604 54.8941 287.079 54.0608C291.229 51.6048 292.748 47.0284 292.748 43.1316V0H278.479V38.8581L233.452 6.00903C227.742 2.29227 222.653 0.00409422 216.166 0.00409422C205.326 0.00409422 196.636 5.61198 191.155 15.8412L157.025 73.3323L146.354 53.8561C158.449 49.2307 164.81 39.423 164.81 27.409C164.81 12.1777 152.42 0.020468 137.189 0.020468C129.868 0.0291298 122.849 2.94051 117.672 8.11621C112.495 13.2919 109.582 20.3095 109.571 27.6301V33.721C109.571 41.6457 103.488 40.9949 103.488 40.9949ZM216.17 40.9949C213.526 41.0005 210.939 40.2218 208.738 38.7573C206.537 37.2927 204.819 35.2081 203.803 32.7673C202.787 30.3264 202.517 27.6389 203.029 25.0449C203.54 22.4508 204.809 20.0667 206.676 18.1943C208.543 16.3218 210.923 15.0451 213.516 14.5257C216.108 14.0064 218.796 14.2676 221.24 15.2764C223.684 16.2852 225.774 17.9963 227.245 20.1931C228.717 22.3899 229.503 24.9738 229.506 27.6178C229.501 31.1572 228.096 34.551 225.597 37.0576C223.099 39.5642 219.709 40.9797 216.17 40.9949Z" fill="#2E323B"/>
  </svg>
  